<svg width="512" height="512" viewBox="0 0 512 512" fill="none" xmlns="http://www.w3.org/2000/svg">
<path d="M240.915 420.418C240.919 420.422 240.923 420.425 240.927 420.429C241.42 420.921 241.939 421.388 242.478 421.831C242.725 422.034 242.986 422.21 243.24 422.401C243.543 422.628 243.84 422.863 244.155 423.074C244.459 423.277 244.774 423.453 245.086 423.639C245.372 423.81 245.651 423.989 245.945 424.146C246.263 424.316 246.59 424.46 246.915 424.613C247.221 424.758 247.523 424.911 247.837 425.041C248.152 425.171 248.474 425.277 248.794 425.391C249.131 425.512 249.463 425.641 249.807 425.745C250.127 425.842 250.452 425.913 250.776 425.994C251.127 426.083 251.474 426.181 251.832 426.252C252.207 426.326 252.585 426.37 252.962 426.424C253.273 426.468 253.58 426.528 253.895 426.559C255.295 426.697 256.706 426.697 258.106 426.559C258.421 426.528 258.728 426.469 259.039 426.424C259.416 426.37 259.794 426.326 260.169 426.252C260.527 426.181 260.874 426.083 261.225 425.994C261.548 425.913 261.874 425.842 262.194 425.745C262.538 425.641 262.871 425.512 263.207 425.391C263.527 425.276 263.849 425.171 264.164 425.041C264.478 424.911 264.78 424.758 265.086 424.613C265.411 424.46 265.738 424.316 266.056 424.146C266.35 423.989 266.629 423.809 266.915 423.639C267.227 423.453 267.542 423.277 267.846 423.074C268.161 422.863 268.458 422.628 268.761 422.401C269.015 422.211 269.276 422.034 269.523 421.831C270.062 421.388 270.581 420.922 271.074 420.429C271.078 420.425 271.082 420.422 271.086 420.418L420.419 271.085C428.75 262.754 428.75 249.246 420.419 240.915C412.088 232.584 398.58 232.584 390.249 240.915L277.333 353.83V21.333C277.333 9.551 267.782 0 256 0C244.218 0 234.667 9.551 234.667 21.333V353.83L121.752 240.915C113.421 232.584 99.9132 232.584 91.5822 240.915C83.2512 249.246 83.2512 262.754 91.5822 271.085L240.915 420.418Z" fill="#ADDBB5"/>
<path d="M405.333 469.333H106.667C94.8855 469.333 85.3345 478.884 85.3345 490.666C85.3345 502.448 94.8855 512 106.667 512H405.334C417.116 512 426.667 502.449 426.667 490.667C426.667 478.885 417.115 469.333 405.333 469.333Z" fill="#ADDBB5"/>
</svg>
